HIERARCHY
ROOT hip
{
	OFFSET 0.000000 0.000000 0.000000
	CHANNELS 6 Xposition Yposition Zposition Xrotation Zrotation Yrotation 
	JOINT abdomen
	{
		OFFSET 0.000000 3.422050 0.000000
		CHANNELS 3 Xrotation Zrotation Yrotation 
		JOINT chest
		{
			OFFSET 0.000000 8.486693 -0.684411
			CHANNELS 3 Xrotation Zrotation Yrotation 
			JOINT neck
			{
				OFFSET 0.000000 10.266162 -0.273764
				CHANNELS 3 Xrotation Zrotation Yrotation 
				JOINT head
				{
					OFFSET 0.000000 3.148285 0.000000
					CHANNELS 3 Xrotation Zrotation Yrotation 
					End Site
					{
						OFFSET 0.000000 3.148289 0.000000
					}
				}
			}
			JOINT lCollar
			{
				OFFSET 3.422053 6.707223 -0.821293
				CHANNELS 3 Yrotation Zrotation Xrotation 
				JOINT lShldr
				{
					OFFSET 3.285171 0.000000 0.000000
					CHANNELS 3 Zrotation Yrotation Xrotation 
					JOINT lForeArm
					{
						OFFSET 10.129278 0.000000 0.000000
						CHANNELS 3 Yrotation Zrotation Xrotation 
						JOINT lHand
						{
							OFFSET 8.486692 0.000000 0.000000
							CHANNELS 3 Zrotation Yrotation Xrotation 
							End Site
							{
								OFFSET 4.106464 0.000000 0.000000
							}
						}
					}
				}
			}
			JOINT rCollar
			{
				OFFSET -3.558935 6.707223 -0.821293
				CHANNELS 3 Yrotation Zrotation Xrotation 
				JOINT rShldr
				{
					OFFSET -3.148289 0.000000 0.000000
					CHANNELS 3 Zrotation Yrotation Xrotation 
					JOINT rForeArm
					{
						OFFSET -10.266159 0.000000 0.000000
						CHANNELS 3 Yrotation Zrotation Xrotation 
						JOINT rHand
						{
							OFFSET -8.349810 0.000000 0.000000
							CHANNELS 3 Zrotation Yrotation Xrotation 
							End Site
							{
								OFFSET -4.106464 0.000000 0.000000
							}
						}
					}
				}
			}
		}
	}
	JOINT lThigh
	{
		OFFSET 5.338403 -1.642589 1.368821
		CHANNELS 3 Xrotation Zrotation Yrotation 
		JOINT lShin
		{
			OFFSET -2.053232 -20.121670 0.000000
			CHANNELS 3 Xrotation Zrotation Yrotation 
			JOINT lFoot
			{
				OFFSET 0.000000 -19.300380 -1.231939
				CHANNELS 3 Xrotation Yrotation Zrotation 
				End Site
				{
					OFFSET 0.000000 -2.463878 4.653993
				}
			}
		}
	}
	JOINT rThigh
	{
		OFFSET -5.338403 -1.642589 1.368821
		CHANNELS 3 Xrotation Zrotation Yrotation 
		JOINT rShin
		{
			OFFSET 2.053232 -20.121670 0.000000
			CHANNELS 3 Xrotation Zrotation Yrotation 
			JOINT rFoot
			{
				OFFSET 0.000000 -19.300380 -1.231939
				CHANNELS 3 Xrotation Yrotation Zrotation 
				End Site
				{
					OFFSET 0.000000 -2.463878 4.653993
				}
			}
		}
	}
}
MOTION
Frames: 13
Frame Time: 0.033264
0.000000 43.528500 0.000000 0.000000 0.000000 0.000000 0.000000 0.000000 0.000000 0.000000 0.000000 0.000000 0.000000 0.000000 0.000000 0.000000 0.000000 0.000000 0.000000 0.000000 0.000000 0.000000 0.000000 0.000000 0.000000 0.000000 0.000000 0.000000 0.000000 0.000000 0.000000 0.000000 0.000000 0.000000 0.000000 0.000000 0.000000 0.000000 0.000000 0.000000 0.000000 0.000000 0.000000 0.000000 0.000000 0.000000 0.000000 0.000000 0.000000 0.000000 0.000000 0.000000 0.000000 0.000000 0.000000 0.000000 0.000000 0.000000 0.000000 0.000000 
0.000000 43.528500 0.000000 15.996989 0.000000 0.000000 -8.335250 -0.539980 -0.120196 40.663425 -0.667261 -0.801085 6.996825 0.000000 0.000000 17.998348 0.000000 0.000000 3.537595 2.811265 -2.755694 -77.959221 1.386215 -1.942763 15.603721 -22.588030 4.842241 0.015949 -28.859053 2.345036 7.996828 10.996526 -3.002183 69.997948 29.000362 29.995640 36.996548 4.997622 1.998130 4.997874 7.998196 -19.001181 -11.496833 2.535246 10.516695 81.876732 6.862367 -2.062448 72.753723 19.995880 -17.669983 -11.681768 -2.374348 -10.431590 88.295410 -6.262272 1.034454 35.492741 -5.319723 12.519758 
0.000000 43.528500 -0.075928 16.773235 0.000000 0.000000 -7.393643 -0.539967 -0.120176 36.882675 -0.667419 -0.801017 6.608315 0.000000 0.000000 17.001894 0.000000 0.000000 3.774141 3.244104 -0.852879 -77.959221 1.386215 -1.942763 16.022514 -22.992743 4.977412 0.092867 -28.795774 2.859243 7.832444 10.011414 -2.261528 71.730240 27.710436 30.351171 36.996555 4.997626 2.020057 4.178673 6.696962 -20.388918 -12.552052 2.570595 10.591019 82.178558 6.898208 -2.026551 72.753723 19.995880 -17.669983 -12.731938 -2.421323 -10.518648 88.589989 -6.291185 1.001801 35.492741 -5.319723 12.519758 
0.000000 43.528500 -0.151855 17.550056 0.000000 0.000000 -6.451011 -0.539954 -0.120156 33.028519 -0.667575 -0.800937 6.219733 0.000000 0.000000 16.004217 0.000000 0.000000 3.997317 3.686722 1.058319 -77.959221 1.386215 -1.942763 16.443777 -23.396688 5.116265 0.170412 -28.733080 3.373432 7.681173 9.022474 -1.524516 73.442566 26.404825 30.660412 36.996574 4.997630 2.041984 3.389488 5.369923 -21.761265 -13.608711 2.607357 10.664779 82.480469 6.933865 -1.990457 72.753723 19.995880 -17.669983 -13.783520 -2.469953 -10.604955 88.884598 -6.319932 0.968994 35.492744 -5.319722 12.519758 
0.000000 43.528500 -0.227783 18.327383 0.000000 0.000000 -5.507484 -0.539941 -0.120136 29.107733 -0.667729 -0.800846 5.831090 0.000000 0.000000 15.005482 0.000000 0.000000 4.206550 4.138471 2.977012 -77.959221 1.386215 -1.942764 16.867546 -23.799812 5.258837 0.248576 -28.670977 3.887583 7.542937 8.030095 -0.790865 75.136101 25.085524 30.924177 36.996586 4.997633 2.063911 2.630644 4.018646 -23.118437 -14.666639 2.645520 10.737943 82.782440 6.969335 -1.954169 72.753723 19.995880 -17.669983 -14.836334 -2.520218 -10.690458 89.179298 -6.348514 0.936033 35.492741 -5.319724 12.519758 
0.000000 43.528500 -0.303711 19.105133 0.000000 0.000000 -4.563185 -0.539929 -0.120115 25.127970 -0.667877 -0.800742 5.442392 0.000000 0.000000 14.005833 0.000000 0.000000 4.401309 4.598664 4.902303 -77.959221 1.386215 -1.942763 17.293865 -24.202072 5.405163 0.327348 -28.609470 4.401674 7.417668 7.034670 -0.060298 76.811943 23.754519 31.143265 36.996590 4.997637 2.085838 1.902409 2.644747 -24.460737 -15.725652 2.685067 10.810465 83.084496 7.004618 -1.917688 72.753723 19.995880 -17.669983 -15.890203 -2.572099 -10.775113 89.474022 -6.376929 0.902921 35.492741 -5.319722 12.519756 
0.000000 43.528500 -0.379639 19.883247 0.000000 0.000000 -3.618243 -0.539917 -0.120094 21.097696 -0.668021 -0.800627 5.053650 0.000000 0.000000 13.005418 0.000000 0.000000 4.581102 5.066576 6.833289 -77.959213 1.386215 -1.942763 17.722780 -24.603428 5.555281 0.406719 -28.548582 4.915685 7.305299 6.036587 0.667467 78.471191 22.413811 31.318497 36.996605 4.997641 2.107766 1.205010 1.249879 -25.788523 -16.785561 2.725981 10.882303 83.386612 7.039712 -1.881013 72.753723 19.995880 -17.669983 -16.944944 -2.625574 -10.858874 89.768829 -6.405177 0.869658 35.492737 -5.319722 12.519756 
0.000000 43.528500 -0.455566 20.661648 0.000000 0.000000 -2.672788 -0.539906 -0.120073 17.026085 -0.668156 -0.800501 4.664871 0.000000 0.000000 12.004393 0.000000 0.000000 4.745476 5.541438 8.769053 -77.959221 1.386215 -1.942763 18.154318 -25.003813 5.709224 0.486677 -28.488298 5.429593 7.205767 5.036241 1.392708 80.114983 21.065422 31.450737 36.996616 4.997645 2.129693 0.538630 -0.164265 -27.102242 -17.846201 2.768247 10.953428 83.688805 7.074618 -1.844149 72.753723 19.995880 -17.669983 -18.000383 -2.680618 -10.941695 90.063667 -6.433255 0.836245 35.492741 -5.319723 12.519758 
0.000000 43.528500 -0.531494 21.440264 0.000000 0.000000 -1.726945 -0.539895 -0.120052 12.922907 -0.668284 -0.800365 4.276068 0.000000 0.000000 11.002907 0.000000 0.000000 4.894026 6.022459 10.708686 -77.959221 1.386215 -1.942763 18.588533 -25.403193 5.867032 0.567213 -28.428646 5.943379 7.119016 4.034024 2.115704 81.744377 19.711348 31.540813 36.996628 4.997649 2.151621 -0.096577 -1.595965 -28.402382 -18.907372 2.811842 11.023793 83.991028 7.109328 -1.807095 72.753738 19.995880 -17.669983 -19.056332 -2.737205 -11.023532 90.358551 -6.461163 0.802685 35.492741 -5.319723 12.519758 
0.000000 43.528500 -0.607422 22.219023 0.000000 0.000000 -0.780844 -0.539884 -0.120031 8.798408 -0.668402 -0.800219 3.887244 0.000000 0.000000 10.001119 0.000000 0.000000 5.026398 6.508815 12.651269 -77.959229 1.386215 -1.942764 19.025455 -25.801510 6.028738 0.648317 -28.369619 6.457021 7.044999 3.030332 2.836735 83.360451 18.353609 31.589602 36.996639 4.997653 2.173549 -0.700489 -3.043480 -29.689501 -19.968897 2.856748 11.093367 84.293335 7.143847 -1.769852 72.753723 19.995880 -17.669983 -20.112616 -2.795310 -11.104342 90.653481 -6.488901 0.768978 35.492744 -5.319722 12.519758 
0.000000 43.528500 -0.683349 22.997854 0.000000 0.000000 0.165386 -0.539874 -0.120009 4.663166 -0.668510 -0.800065 3.498412 0.000000 0.000000 8.999174 0.000000 0.000000 5.142284 6.999660 14.595893 -77.959221 1.386215 -1.942764 19.465134 -26.198719 6.194381 0.729978 -28.311237 6.970499 6.983670 2.025557 3.556077 84.964211 16.994194 31.597958 36.996651 4.997656 2.195477 -1.273004 -4.505053 -30.964222 -21.030600 2.902943 11.162111 84.595680 7.178171 -1.732423 72.753723 19.995882 -17.669983 -21.169056 -2.854904 -11.184086 90.948441 -6.516465 0.735124 35.492741 -5.319723 12.519758 
0.000000 43.528500 -0.759277 23.776682 0.000000 0.000000 1.111616 -0.539864 -0.119988 0.527922 -0.668606 -0.799903 3.109580 0.000000 0.000000 7.997231 0.000000 0.000000 5.241430 7.494127 16.541634 -77.959221 1.386215 -1.942763 19.907614 -26.594776 6.364000 0.812184 -28.253500 7.483790 6.934990 1.020091 4.274007 86.556686 15.635087 31.566755 36.996662 4.997659 2.217405 -1.814035 -5.978915 -32.227184 -22.092287 2.950400 11.229986 84.898056 7.212297 -1.694811 72.753716 19.995880 -17.669979 -22.225466 -2.915956 -11.262718 91.243454 -6.543857 0.701127 35.492741 -5.319723 12.519758 
0.000000 43.528500 -0.835205 24.555443 0.000000 0.000000 2.057716 -0.539854 -0.119966 -3.596575 -0.668690 -0.799735 2.720757 0.000000 0.000000 6.995441 0.000000 0.000000 5.323637 7.991339 18.487591 -77.959221 1.386215 -1.942763 20.352926 -26.989624 6.537630 0.894927 -28.196413 7.996873 6.898927 0.014330 4.990804 88.138794 14.278242 31.496841 36.996674 4.997663 2.239334 -2.323510 -7.463299 -33.479118 -23.153780 2.999098 11.296963 85.200485 7.246226 -1.657014 72.753723 19.995882 -17.669981 -23.281666 -2.978435 -11.340203 91.538460 -6.571072 0.666987 35.492737 -5.319722 12.519757 
